<svg width="55" height="45" viewBox="0 0 55 45" fill="none" xmlns="http://www.w3.org/2000/svg">
<path d="M25.1986 38.7973C25.5505 39.1782 25.7433 39.6793 25.7376 40.1978C25.7319 40.7163 25.5282 41.2131 25.1681 41.5862C24.5113 42.3114 23.815 42.9997 23.0823 43.6481C22.7308 43.8973 22.3472 44.0978 21.9419 44.244C21.5208 44.2806 21.0983 44.1921 20.7273 43.9897C20.3562 43.7872 20.0532 43.4797 19.8561 43.1058C19.66 42.7791 19.5712 42.3992 19.6023 42.0194C19.6335 41.6396 19.783 41.2792 20.0297 40.9888C20.7723 40.1274 21.5764 39.321 22.4358 38.576C22.6316 38.4089 22.8584 38.282 23.1033 38.2026C23.3483 38.1232 23.6064 38.093 23.8631 38.1135C24.1197 38.1341 24.3698 38.205 24.599 38.3224C24.8281 38.4397 25.0319 38.6011 25.1986 38.7973ZM11.8648 25.6869C11.6892 25.3101 11.412 24.9897 11.0643 24.7618C10.7167 24.5339 10.3123 24.4075 9.89674 24.3967C9.4561 24.5469 9.0371 24.7542 8.65051 25.0135C7.88296 25.6911 7.15638 26.4137 6.47463 27.1775C6.29172 27.3666 6.1485 27.5904 6.05339 27.8358C5.95829 28.0811 5.91323 28.343 5.92086 28.606C5.9285 28.869 5.98868 29.1278 6.09785 29.3672C6.20703 29.6066 6.363 29.8217 6.55657 29.9999C6.92148 30.3705 7.41621 30.5846 7.93613 30.597C8.45605 30.6093 8.9604 30.419 9.34253 30.0662C10.119 29.3645 10.8589 28.6233 11.5594 27.8457C11.834 27.5653 12.0119 27.2044 12.0668 26.8157C12.1217 26.427 12.051 26.031 11.8648 25.6854V25.6869ZM15.9692 29.5873C15.5787 29.2296 15.0667 29.0339 14.5371 29.0398C14.0076 29.0458 13.5001 29.2529 13.1177 29.6193C12.3949 30.2773 11.7078 30.9735 11.0595 31.705C10.8221 32.035 10.6321 32.3965 10.4949 32.7792C10.445 33.2114 10.5299 33.6485 10.7381 34.0305C10.9463 34.4126 11.2675 34.7209 11.6577 34.9133C12.0118 35.1065 12.4178 35.1828 12.8179 35.1316C13.218 35.0804 13.5917 34.9041 13.8857 34.628C14.644 33.942 15.3755 33.2239 16.0638 32.4678C16.2527 32.2754 16.4005 32.0467 16.4984 31.7956C16.5963 31.5444 16.6422 31.276 16.6334 31.0065C16.6246 30.7371 16.5611 30.4723 16.447 30.2281C16.3328 29.9838 16.1703 29.7653 15.9692 29.5858V29.5873ZM21.2037 35.919C21.1232 34.8016 20.7679 34.1312 19.9537 33.7654C19.5813 33.5836 19.1607 33.5251 18.7528 33.5982C18.3449 33.6713 17.9708 33.8723 17.6847 34.1722C16.9994 34.8038 16.3439 35.4728 15.7011 36.1454C15.5015 36.3335 15.3418 36.5596 15.2312 36.8105C15.1206 37.0614 15.0615 37.3319 15.0574 37.606C15.0532 37.8802 15.1041 38.1524 15.2069 38.4065C15.3098 38.6606 15.4627 38.8915 15.6564 39.0856C15.8514 39.2786 16.0828 39.431 16.3372 39.5339C16.5916 39.6369 16.8639 39.6882 17.1383 39.6851C17.4127 39.682 17.6837 39.6244 17.9357 39.5158C18.1877 39.4071 18.4156 39.2495 18.6062 39.052C19.2816 38.4415 19.9237 37.795 20.5295 37.1153C20.7999 36.7432 21.0261 36.341 21.2037 35.9167V35.919ZM51.9467 6.38415C51.5378 5.79214 51.0816 5.23412 50.5828 4.71556C50.088 4.18231 49.5531 3.68774 48.9827 3.23617C48.2396 2.66239 47.4319 2.17763 46.576 1.7918C44.2585 0.707469 41.7432 0.110152 39.1857 0.0367976C36.5843 0.10144 34.0361 0.787472 31.7538 2.03762C29.928 3.12046 28.2792 4.47709 26.865 6.06011C24.7137 8.22556 22.5311 10.3612 20.3843 12.5296C20.0942 12.7984 19.8678 13.1285 19.7215 13.4959C19.5752 13.8633 19.5127 14.2587 19.5386 14.6533C19.5645 15.0479 19.6781 15.4318 19.8712 15.7769C20.0643 16.122 20.332 16.4197 20.6547 16.6482C21.1553 17.0173 21.7705 17.197 22.3911 17.1552C23.0117 17.1135 23.5973 16.8531 24.044 16.4203C25.0474 15.4772 30.1128 10.5445 31.5676 9.08146C39.2051 16.6467 44.7949 22.232 46.1402 23.6116C47.0758 24.5703 47.9376 25.4672 47.9376 25.4672C48.5403 26.0996 49.1526 26.7469 49.794 27.4158C50.2282 26.8683 50.7102 26.3216 51.1802 25.7532C51.6531 25.1819 52.0942 24.5851 52.5017 23.9654C53.8857 21.7593 54.7316 19.2586 54.9711 16.6654C55.1458 13.8271 54.5268 10.9962 53.1833 8.49C52.8177 7.76171 52.4046 7.05824 51.9467 6.38415ZM31.5646 12.3255C29.4535 14.3785 26.1811 17.5853 25.3647 18.3019C24.4175 19.0896 23.2118 19.498 21.9809 19.4482C20.75 19.3984 19.5813 18.8939 18.7008 18.0323C17.8181 17.1717 17.2909 16.0109 17.2237 14.78C17.1565 13.549 17.5542 12.3377 18.338 11.3862C18.9816 10.6212 19.7131 9.92916 20.4238 9.21926C22.1877 7.44713 23.9636 5.68021 25.7774 3.87158C23.792 2.08465 21.3677 0.857102 18.7523 0.314469C16.1369 -0.228164 13.4243 -0.0664081 10.8919 0.783194C4.53713 2.94268 0.852077 7.48065 0.103446 14.1662C-0.152889 16.3166 0.0685852 18.4971 0.752062 20.552C1.43554 22.6069 2.56417 24.4857 4.05741 26.0542C5.08985 25.1111 6.03737 24.2224 7.00575 23.3621C7.50739 22.8834 8.11676 22.5324 8.78249 22.3385C9.44822 22.1447 10.1508 22.1138 10.831 22.2484C11.5112 22.383 12.149 22.6791 12.6908 23.1119C13.2325 23.5446 13.6623 24.1013 13.9438 24.7349C14.1857 25.3672 14.3724 26.0192 14.5018 26.6836C17.243 26.9242 18.7365 28.4587 18.9816 31.2216C21.7929 31.4763 23.3103 32.9959 23.536 35.7514C23.6154 35.7775 23.6969 35.7967 23.7796 35.8087C24.4491 35.8273 25.1055 35.9987 25.6987 36.3097C26.2919 36.6208 26.8061 37.0633 27.2021 37.6035C27.5981 38.1437 27.8654 38.7672 27.9836 39.4265C28.1018 40.0858 28.0677 40.7633 27.884 41.4074C27.8635 41.5019 27.8639 41.5996 27.885 41.6939C27.9061 41.7882 27.9474 41.8767 28.0062 41.9535C28.8174 42.7848 29.6263 43.6228 30.4956 44.3915C30.8476 44.6704 31.2846 44.82 31.7336 44.8155C32.1826 44.8111 32.6164 44.6527 32.9628 44.3669C33.2085 44.1784 33.4084 43.9369 33.5478 43.6603C33.6872 43.3838 33.7625 43.0794 33.7679 42.7697C33.7733 42.4601 33.7089 42.1532 33.5793 41.872C33.4497 41.5907 33.2583 41.3423 33.0194 41.1452C30.9739 39.0982 28.9187 37.0616 26.8747 35.0132C26.784 34.9216 26.7019 34.8219 26.6296 34.7152L23.0734 31.159C22.8699 30.9483 22.7572 30.666 22.7598 30.3731C22.7623 30.0801 22.8798 29.7998 23.087 29.5927C23.2942 29.3855 23.5744 29.268 23.8674 29.2654C24.1604 29.2629 24.4426 29.3755 24.6533 29.5791L28.2289 33.1546C28.3254 33.2223 28.4168 33.297 28.5023 33.3781C29.1459 33.9897 29.7932 34.5982 30.4249 35.2217C31.8998 36.6795 33.3524 38.1596 34.8429 39.601C35.0423 39.8065 35.2826 39.9678 35.5483 40.0746C35.8139 40.1814 36.0991 40.2311 36.3852 40.2207C36.6713 40.2104 36.9521 40.14 37.2093 40.0143C37.4665 39.8885 37.6945 39.7102 37.8784 39.4908C38.2206 39.0707 38.3875 38.5348 38.3443 37.9947C38.3012 37.4546 38.0513 36.952 37.6468 36.5916C35.561 34.4917 33.4544 32.406 31.3575 30.312C30.3578 29.3139 29.3463 28.3284 28.3727 27.3041C28.2627 27.203 28.1747 27.0804 28.1141 26.9439C28.0535 26.8073 28.0217 26.6598 28.0206 26.5104C28.0194 26.361 28.0491 26.213 28.1076 26.0756C28.1661 25.9381 28.2523 25.8142 28.3607 25.7115C28.5732 25.4987 28.8601 25.377 29.1607 25.3721C29.4613 25.3673 29.752 25.4796 29.9712 25.6854C30.1107 25.8014 30.2431 25.9258 30.3675 26.0579C33.339 29.0159 36.3022 31.9814 39.29 34.9223C39.611 35.2389 40.0065 35.4694 40.4402 35.5927C40.8648 35.7008 41.3133 35.6648 41.7152 35.4903C42.1172 35.3159 42.4497 35.0128 42.6607 34.6288C42.8823 34.239 42.9695 33.7871 42.9087 33.3428C42.848 32.8986 42.6428 32.4866 42.3248 32.1706C40.0483 29.8725 37.7525 27.5924 35.4634 25.3063C34.644 24.4869 33.8045 23.6794 32.9985 22.8429C32.8806 22.7418 32.7842 22.6182 32.7149 22.4792C32.6457 22.3402 32.6051 22.1887 32.5955 22.0337C32.5859 21.8787 32.6075 21.7233 32.6591 21.5769C32.7107 21.4304 32.7912 21.2958 32.8957 21.181C33.0092 21.0677 33.1441 20.9782 33.2925 20.9176C33.441 20.857 33.6 20.8266 33.7603 20.8281C33.9206 20.8297 34.079 20.8631 34.2263 20.9265C34.3735 20.9899 34.5067 21.082 34.618 21.1974C34.7208 21.286 34.8101 21.3918 34.907 21.4879C37.8588 24.4318 40.8129 27.3744 43.7691 30.3158C44.0534 30.6447 44.4267 30.8844 44.8441 31.0061C45.2614 31.1278 45.705 31.1263 46.1216 31.0018L46.1797 30.9817C46.5137 30.8466 46.8069 30.6271 47.0306 30.3445C47.2542 30.062 47.4006 29.7262 47.4555 29.3701C47.5103 29.014 47.4716 28.6497 47.3433 28.313C47.215 27.9763 47.0014 27.6787 46.7234 27.4494C43.3803 24.104 35.8337 16.57 31.5646 12.3255Z" fill="white"/>
</svg>
